<svg xmlns="http://www.w3.org/2000/svg" width="128" height="128" viewBox="0 0 128 128">
  <defs>
    <linearGradient id="g" x1="0" y1="0" x2="1" y2="1">
      <stop offset="0" stop-color="#1cc7b8"/>
      <stop offset="0.5" stop-color="#4aa3ff"/>
      <stop offset="1" stop-color="#9a4cff"/>
    </linearGradient>
  </defs>
  <rect width="128" height="128" rx="28" fill="url(#g)"/>
  <g fill="#fff">
    <path d="M28 70c0-20 14-32 36-32h8c17 0 32 12 32 30 0 17-13 30-30 30H62c-20 0-34-11-34-28z" opacity="0.95"/>
    <circle cx="94" cy="62" r="8"/>
    <rect x="56" y="32" width="16" height="22" rx="4"/>
    <path d="M50 86c0 6-4 10-10 10s-10-4-10-10h20zm46 0c0 6-4 10-10 10s-10-4-10-10h20z"/>
    <path d="M64 54c6 0 10 4 10 10s-4 10-10 10-10-4-10-10 4-10 10-10zm0 6a4 4 0 100 8 4 4 0 000-8z"/>
  </g>
</svg>
